<svg width="375" height="380" viewBox="0 0 375 380" fill="none" xmlns="http://www.w3.org/2000/svg">
<path d="M236.652 132.531C274.74 147.252 314.064 162.012 317.652 210.031C308.552 269.262 346.212 336.075 336 389C325.788 441.925 280.492 452.169 263.656 485.817C247.096 519.465 209.008 534.536 171.748 544C134.488 553.113 98.3318 556.618 69.6279 540.145C41.1999 523.671 20.2239 486.868 -8.75614 453.922C-38.0121 420.975 -74.9961 391.533 -83.0001 353.679C-91.0041 315.825 -70.0281 269.559 -50.1561 225.746C-30.5601 182.284 -15.2241 175.061 12.6519 154.031C40.2519 133.351 80.3919 99.2156 120.964 92.5561C161.536 85.8966 198.564 117.81 236.652 132.531Z" fill="#E9F7FF"/>
</svg>
