<svg width="268" height="195" viewBox="0 0 268 195" fill="none" xmlns="http://www.w3.org/2000/svg">
<g opacity="0.5">
<path d="M138.6 -94.9481C139.8 -116.348 126.8 -108.548 138.6 -114.348C150.6 -120.348 175.4 -103.148 195.4 -94.9481C215.4 -86.9481 230.8 -87.9481 250.4 -86.5481C270 -84.9481 293.8 -80.9481 299.6 -67.7481C305.6 -54.3481 293.8 -31.7481 287.2 -12.9481C280.8 6.05188 279.8 21.0518 281.6 48.0518C283.4 74.8519 288.2 113.252 275 129.452C262 145.652 231 139.452 199.4 140.452C167.8 141.452 138.1 144.9 111.5 136.5C85.1 127.9 72.4 76.0518 75 48.0518C77.6 20.2518 109.6 -20.3 124 -42.5C138.6 -64.7 137.4 -73.7481 138.6 -94.9481Z" fill="#FFE3D3"/>
</g>
</svg>
